<mxfile host="Electron" modified="2024-03-25T21:51:26.074Z" agent="Mozilla/5.0 (Windows NT 10.0; Win64; x64) AppleWebKit/537.36 (KHTML, like Gecko) draw.io/24.0.4 Chrome/120.0.6099.109 Electron/28.1.0 Safari/537.36" etag="b0bDtdqxihDsgVnnxxZU" version="24.0.4" type="device">
  <diagram name="PÃ¡gina-1" id="1lfuttJhS24wiNy_dsXY">
    <mxGraphModel dx="800" dy="654" grid="0" gridSize="10" guides="1" tooltips="1" connect="1" arrows="1" fold="1" page="0" pageScale="1" pageWidth="1169" pageHeight="827" math="0" shadow="0">
      <root>
        <mxCell id="0" />
        <mxCell id="1" parent="0" />
        <mxCell id="gRn7YBkFTihaeQdy9_q2-67" style="edgeStyle=orthogonalEdgeStyle;rounded=0;orthogonalLoop=1;jettySize=auto;html=1;entryX=0;entryY=0.5;entryDx=0;entryDy=0;endArrow=none;endFill=0;" edge="1" parent="1" source="gRn7YBkFTihaeQdy9_q2-1" target="gRn7YBkFTihaeQdy9_q2-18">
          <mxGeometry relative="1" as="geometry" />
        </mxCell>
        <mxCell id="gRn7YBkFTihaeQdy9_q2-1" value="Actividad" style="swimlane;fontStyle=1;align=center;verticalAlign=top;childLayout=stackLayout;horizontal=1;startSize=26;horizontalStack=0;resizeParent=1;resizeParentMax=0;resizeLast=0;collapsible=1;marginBottom=0;whiteSpace=wrap;html=1;" vertex="1" parent="1">
          <mxGeometry x="700" y="180" width="160" height="104" as="geometry" />
        </mxCell>
        <mxCell id="gRn7YBkFTihaeQdy9_q2-2" value="- Identificador: Entero&lt;div&gt;- Descripcion: cadena&lt;/div&gt;" style="text;strokeColor=none;fillColor=none;align=left;verticalAlign=top;spacingLeft=4;spacingRight=4;overflow=hidden;rotatable=0;points=[[0,0.5],[1,0.5]];portConstraint=eastwest;whiteSpace=wrap;html=1;" vertex="1" parent="gRn7YBkFTihaeQdy9_q2-1">
          <mxGeometry y="26" width="160" height="44" as="geometry" />
        </mxCell>
        <mxCell id="gRn7YBkFTihaeQdy9_q2-3" value="" style="line;strokeWidth=1;fillColor=none;align=left;verticalAlign=middle;spacingTop=-1;spacingLeft=3;spacingRight=3;rotatable=0;labelPosition=right;points=[];portConstraint=eastwest;strokeColor=inherit;" vertex="1" parent="gRn7YBkFTihaeQdy9_q2-1">
          <mxGeometry y="70" width="160" height="8" as="geometry" />
        </mxCell>
        <mxCell id="gRn7YBkFTihaeQdy9_q2-4" value="+ Crear_Actividad()" style="text;strokeColor=none;fillColor=none;align=left;verticalAlign=top;spacingLeft=4;spacingRight=4;overflow=hidden;rotatable=0;points=[[0,0.5],[1,0.5]];portConstraint=eastwest;whiteSpace=wrap;html=1;" vertex="1" parent="gRn7YBkFTihaeQdy9_q2-1">
          <mxGeometry y="78" width="160" height="26" as="geometry" />
        </mxCell>
        <mxCell id="gRn7YBkFTihaeQdy9_q2-59" style="edgeStyle=orthogonalEdgeStyle;rounded=0;orthogonalLoop=1;jettySize=auto;html=1;entryX=0;entryY=0.5;entryDx=0;entryDy=0;exitX=0.75;exitY=0;exitDx=0;exitDy=0;endArrow=block;endFill=0;" edge="1" parent="1" source="gRn7YBkFTihaeQdy9_q2-5">
          <mxGeometry relative="1" as="geometry">
            <mxPoint x="700.0000000000002" y="361" as="sourcePoint" />
            <mxPoint x="720" y="284.00000000000006" as="targetPoint" />
          </mxGeometry>
        </mxCell>
        <mxCell id="gRn7YBkFTihaeQdy9_q2-5" value="Campamento" style="swimlane;fontStyle=1;align=center;verticalAlign=top;childLayout=stackLayout;horizontal=1;startSize=26;horizontalStack=0;resizeParent=1;resizeParentMax=0;resizeLast=0;collapsible=1;marginBottom=0;whiteSpace=wrap;html=1;" vertex="1" parent="1">
          <mxGeometry x="600" y="348" width="160" height="104" as="geometry" />
        </mxCell>
        <mxCell id="gRn7YBkFTihaeQdy9_q2-6" value="- Ubicacion: Cadena&lt;div&gt;- Duracion: Cadena&lt;/div&gt;" style="text;strokeColor=none;fillColor=none;align=left;verticalAlign=top;spacingLeft=4;spacingRight=4;overflow=hidden;rotatable=0;points=[[0,0.5],[1,0.5]];portConstraint=eastwest;whiteSpace=wrap;html=1;" vertex="1" parent="gRn7YBkFTihaeQdy9_q2-5">
          <mxGeometry y="26" width="160" height="44" as="geometry" />
        </mxCell>
        <mxCell id="gRn7YBkFTihaeQdy9_q2-7" value="" style="line;strokeWidth=1;fillColor=none;align=left;verticalAlign=middle;spacingTop=-1;spacingLeft=3;spacingRight=3;rotatable=0;labelPosition=right;points=[];portConstraint=eastwest;strokeColor=inherit;" vertex="1" parent="gRn7YBkFTihaeQdy9_q2-5">
          <mxGeometry y="70" width="160" height="8" as="geometry" />
        </mxCell>
        <mxCell id="gRn7YBkFTihaeQdy9_q2-8" value="+ Crear_Campamento()" style="text;strokeColor=none;fillColor=none;align=left;verticalAlign=top;spacingLeft=4;spacingRight=4;overflow=hidden;rotatable=0;points=[[0,0.5],[1,0.5]];portConstraint=eastwest;whiteSpace=wrap;html=1;" vertex="1" parent="gRn7YBkFTihaeQdy9_q2-5">
          <mxGeometry y="78" width="160" height="26" as="geometry" />
        </mxCell>
        <mxCell id="gRn7YBkFTihaeQdy9_q2-9" value="Recurso" style="swimlane;fontStyle=1;align=center;verticalAlign=top;childLayout=stackLayout;horizontal=1;startSize=26;horizontalStack=0;resizeParent=1;resizeParentMax=0;resizeLast=0;collapsible=1;marginBottom=0;whiteSpace=wrap;html=1;" vertex="1" parent="1">
          <mxGeometry x="1100" y="350" width="160" height="104" as="geometry" />
        </mxCell>
        <mxCell id="gRn7YBkFTihaeQdy9_q2-10" value="- Identificador: Cadena&lt;div&gt;- Nombre: Cadena&lt;/div&gt;" style="text;strokeColor=none;fillColor=none;align=left;verticalAlign=top;spacingLeft=4;spacingRight=4;overflow=hidden;rotatable=0;points=[[0,0.5],[1,0.5]];portConstraint=eastwest;whiteSpace=wrap;html=1;" vertex="1" parent="gRn7YBkFTihaeQdy9_q2-9">
          <mxGeometry y="26" width="160" height="44" as="geometry" />
        </mxCell>
        <mxCell id="gRn7YBkFTihaeQdy9_q2-11" value="" style="line;strokeWidth=1;fillColor=none;align=left;verticalAlign=middle;spacingTop=-1;spacingLeft=3;spacingRight=3;rotatable=0;labelPosition=right;points=[];portConstraint=eastwest;strokeColor=inherit;" vertex="1" parent="gRn7YBkFTihaeQdy9_q2-9">
          <mxGeometry y="70" width="160" height="8" as="geometry" />
        </mxCell>
        <mxCell id="gRn7YBkFTihaeQdy9_q2-12" value="+ Crear_Recurso()" style="text;strokeColor=none;fillColor=none;align=left;verticalAlign=top;spacingLeft=4;spacingRight=4;overflow=hidden;rotatable=0;points=[[0,0.5],[1,0.5]];portConstraint=eastwest;whiteSpace=wrap;html=1;" vertex="1" parent="gRn7YBkFTihaeQdy9_q2-9">
          <mxGeometry y="78" width="160" height="26" as="geometry" />
        </mxCell>
        <mxCell id="gRn7YBkFTihaeQdy9_q2-58" value="" style="edgeStyle=orthogonalEdgeStyle;rounded=0;orthogonalLoop=1;jettySize=auto;html=1;exitX=0.25;exitY=0;exitDx=0;exitDy=0;endArrow=block;endFill=0;" edge="1" parent="1" source="gRn7YBkFTihaeQdy9_q2-13">
          <mxGeometry relative="1" as="geometry">
            <mxPoint x="880.0000000000002" y="363" as="sourcePoint" />
            <mxPoint x="850" y="284.00000000000006" as="targetPoint" />
          </mxGeometry>
        </mxCell>
        <mxCell id="gRn7YBkFTihaeQdy9_q2-13" value="Deporte" style="swimlane;fontStyle=1;align=center;verticalAlign=top;childLayout=stackLayout;horizontal=1;startSize=26;horizontalStack=0;resizeParent=1;resizeParentMax=0;resizeLast=0;collapsible=1;marginBottom=0;whiteSpace=wrap;html=1;" vertex="1" parent="1">
          <mxGeometry x="810" y="350" width="160" height="104" as="geometry" />
        </mxCell>
        <mxCell id="gRn7YBkFTihaeQdy9_q2-14" value="- Tipo: Cadena&lt;div&gt;-Cant_horas: Cadena&lt;/div&gt;" style="text;strokeColor=none;fillColor=none;align=left;verticalAlign=top;spacingLeft=4;spacingRight=4;overflow=hidden;rotatable=0;points=[[0,0.5],[1,0.5]];portConstraint=eastwest;whiteSpace=wrap;html=1;" vertex="1" parent="gRn7YBkFTihaeQdy9_q2-13">
          <mxGeometry y="26" width="160" height="44" as="geometry" />
        </mxCell>
        <mxCell id="gRn7YBkFTihaeQdy9_q2-15" value="" style="line;strokeWidth=1;fillColor=none;align=left;verticalAlign=middle;spacingTop=-1;spacingLeft=3;spacingRight=3;rotatable=0;labelPosition=right;points=[];portConstraint=eastwest;strokeColor=inherit;" vertex="1" parent="gRn7YBkFTihaeQdy9_q2-13">
          <mxGeometry y="70" width="160" height="8" as="geometry" />
        </mxCell>
        <mxCell id="gRn7YBkFTihaeQdy9_q2-16" value="+ Crear_Deporte()" style="text;strokeColor=none;fillColor=none;align=left;verticalAlign=top;spacingLeft=4;spacingRight=4;overflow=hidden;rotatable=0;points=[[0,0.5],[1,0.5]];portConstraint=eastwest;whiteSpace=wrap;html=1;" vertex="1" parent="gRn7YBkFTihaeQdy9_q2-13">
          <mxGeometry y="78" width="160" height="26" as="geometry" />
        </mxCell>
        <mxCell id="gRn7YBkFTihaeQdy9_q2-17" value="Registro_actividad" style="swimlane;fontStyle=1;align=center;verticalAlign=top;childLayout=stackLayout;horizontal=1;startSize=26;horizontalStack=0;resizeParent=1;resizeParentMax=0;resizeLast=0;collapsible=1;marginBottom=0;whiteSpace=wrap;html=1;" vertex="1" parent="1">
          <mxGeometry x="850" y="25" width="160" height="104" as="geometry" />
        </mxCell>
        <mxCell id="gRn7YBkFTihaeQdy9_q2-18" value="-Fecha: Cadena&lt;div&gt;-Hora: Cadena&lt;/div&gt;" style="text;strokeColor=none;fillColor=none;align=left;verticalAlign=top;spacingLeft=4;spacingRight=4;overflow=hidden;rotatable=0;points=[[0,0.5],[1,0.5]];portConstraint=eastwest;whiteSpace=wrap;html=1;" vertex="1" parent="gRn7YBkFTihaeQdy9_q2-17">
          <mxGeometry y="26" width="160" height="44" as="geometry" />
        </mxCell>
        <mxCell id="gRn7YBkFTihaeQdy9_q2-19" value="" style="line;strokeWidth=1;fillColor=none;align=left;verticalAlign=middle;spacingTop=-1;spacingLeft=3;spacingRight=3;rotatable=0;labelPosition=right;points=[];portConstraint=eastwest;strokeColor=inherit;" vertex="1" parent="gRn7YBkFTihaeQdy9_q2-17">
          <mxGeometry y="70" width="160" height="8" as="geometry" />
        </mxCell>
        <mxCell id="gRn7YBkFTihaeQdy9_q2-20" value="+ Crear_RegActividad()" style="text;strokeColor=none;fillColor=none;align=left;verticalAlign=top;spacingLeft=4;spacingRight=4;overflow=hidden;rotatable=0;points=[[0,0.5],[1,0.5]];portConstraint=eastwest;whiteSpace=wrap;html=1;" vertex="1" parent="gRn7YBkFTihaeQdy9_q2-17">
          <mxGeometry y="78" width="160" height="26" as="geometry" />
        </mxCell>
        <mxCell id="gRn7YBkFTihaeQdy9_q2-21" value="Colonia" style="swimlane;fontStyle=1;align=center;verticalAlign=top;childLayout=stackLayout;horizontal=1;startSize=26;horizontalStack=0;resizeParent=1;resizeParentMax=0;resizeLast=0;collapsible=1;marginBottom=0;whiteSpace=wrap;html=1;" vertex="1" parent="1">
          <mxGeometry x="180" y="200" width="160" height="114" as="geometry" />
        </mxCell>
        <mxCell id="gRn7YBkFTihaeQdy9_q2-22" value="- Codigo: Cadena&lt;div&gt;- Institucion: Cadena&lt;/div&gt;&lt;div&gt;- Direccion: Cadena&lt;/div&gt;" style="text;strokeColor=none;fillColor=none;align=left;verticalAlign=top;spacingLeft=4;spacingRight=4;overflow=hidden;rotatable=0;points=[[0,0.5],[1,0.5]];portConstraint=eastwest;whiteSpace=wrap;html=1;" vertex="1" parent="gRn7YBkFTihaeQdy9_q2-21">
          <mxGeometry y="26" width="160" height="54" as="geometry" />
        </mxCell>
        <mxCell id="gRn7YBkFTihaeQdy9_q2-23" value="" style="line;strokeWidth=1;fillColor=none;align=left;verticalAlign=middle;spacingTop=-1;spacingLeft=3;spacingRight=3;rotatable=0;labelPosition=right;points=[];portConstraint=eastwest;strokeColor=inherit;" vertex="1" parent="gRn7YBkFTihaeQdy9_q2-21">
          <mxGeometry y="80" width="160" height="8" as="geometry" />
        </mxCell>
        <mxCell id="gRn7YBkFTihaeQdy9_q2-24" value="+ Crear_Colonia()" style="text;strokeColor=none;fillColor=none;align=left;verticalAlign=top;spacingLeft=4;spacingRight=4;overflow=hidden;rotatable=0;points=[[0,0.5],[1,0.5]];portConstraint=eastwest;whiteSpace=wrap;html=1;" vertex="1" parent="gRn7YBkFTihaeQdy9_q2-21">
          <mxGeometry y="88" width="160" height="26" as="geometry" />
        </mxCell>
        <mxCell id="gRn7YBkFTihaeQdy9_q2-25" value="Asociacion" style="swimlane;fontStyle=1;align=center;verticalAlign=top;childLayout=stackLayout;horizontal=1;startSize=26;horizontalStack=0;resizeParent=1;resizeParentMax=0;resizeLast=0;collapsible=1;marginBottom=0;whiteSpace=wrap;html=1;" vertex="1" parent="1">
          <mxGeometry x="180" y="-30" width="160" height="114" as="geometry" />
        </mxCell>
        <mxCell id="gRn7YBkFTihaeQdy9_q2-26" value="- Nombre: Cadena&lt;div&gt;- Direccion: Cadena&lt;/div&gt;&lt;div&gt;- Telefono: Cadena&lt;/div&gt;" style="text;strokeColor=none;fillColor=none;align=left;verticalAlign=top;spacingLeft=4;spacingRight=4;overflow=hidden;rotatable=0;points=[[0,0.5],[1,0.5]];portConstraint=eastwest;whiteSpace=wrap;html=1;" vertex="1" parent="gRn7YBkFTihaeQdy9_q2-25">
          <mxGeometry y="26" width="160" height="54" as="geometry" />
        </mxCell>
        <mxCell id="gRn7YBkFTihaeQdy9_q2-27" value="" style="line;strokeWidth=1;fillColor=none;align=left;verticalAlign=middle;spacingTop=-1;spacingLeft=3;spacingRight=3;rotatable=0;labelPosition=right;points=[];portConstraint=eastwest;strokeColor=inherit;" vertex="1" parent="gRn7YBkFTihaeQdy9_q2-25">
          <mxGeometry y="80" width="160" height="8" as="geometry" />
        </mxCell>
        <mxCell id="gRn7YBkFTihaeQdy9_q2-28" value="+ Crear_Asociacion()" style="text;strokeColor=none;fillColor=none;align=left;verticalAlign=top;spacingLeft=4;spacingRight=4;overflow=hidden;rotatable=0;points=[[0,0.5],[1,0.5]];portConstraint=eastwest;whiteSpace=wrap;html=1;" vertex="1" parent="gRn7YBkFTihaeQdy9_q2-25">
          <mxGeometry y="88" width="160" height="26" as="geometry" />
        </mxCell>
        <mxCell id="gRn7YBkFTihaeQdy9_q2-68" style="edgeStyle=orthogonalEdgeStyle;rounded=0;orthogonalLoop=1;jettySize=auto;html=1;entryX=1;entryY=0.5;entryDx=0;entryDy=0;endArrow=none;endFill=0;" edge="1" parent="1" source="gRn7YBkFTihaeQdy9_q2-29" target="gRn7YBkFTihaeQdy9_q2-18">
          <mxGeometry relative="1" as="geometry" />
        </mxCell>
        <mxCell id="gRn7YBkFTihaeQdy9_q2-29" value="Cliente" style="swimlane;fontStyle=1;align=center;verticalAlign=top;childLayout=stackLayout;horizontal=1;startSize=26;horizontalStack=0;resizeParent=1;resizeParentMax=0;resizeLast=0;collapsible=1;marginBottom=0;whiteSpace=wrap;html=1;" vertex="1" parent="1">
          <mxGeometry x="1120" y="1" width="160" height="144" as="geometry" />
        </mxCell>
        <mxCell id="gRn7YBkFTihaeQdy9_q2-30" value="- Numero: Entero&lt;div&gt;- Nombre: Cadena&lt;/div&gt;&lt;div&gt;- DNI: Cadena&lt;/div&gt;&lt;div&gt;- Telefono: Cadena&lt;/div&gt;&lt;div&gt;-Edad: Cadena&lt;/div&gt;" style="text;strokeColor=none;fillColor=none;align=left;verticalAlign=top;spacingLeft=4;spacingRight=4;overflow=hidden;rotatable=0;points=[[0,0.5],[1,0.5]];portConstraint=eastwest;whiteSpace=wrap;html=1;" vertex="1" parent="gRn7YBkFTihaeQdy9_q2-29">
          <mxGeometry y="26" width="160" height="84" as="geometry" />
        </mxCell>
        <mxCell id="gRn7YBkFTihaeQdy9_q2-31" value="" style="line;strokeWidth=1;fillColor=none;align=left;verticalAlign=middle;spacingTop=-1;spacingLeft=3;spacingRight=3;rotatable=0;labelPosition=right;points=[];portConstraint=eastwest;strokeColor=inherit;" vertex="1" parent="gRn7YBkFTihaeQdy9_q2-29">
          <mxGeometry y="110" width="160" height="8" as="geometry" />
        </mxCell>
        <mxCell id="gRn7YBkFTihaeQdy9_q2-32" value="+ Crear_Cliente()" style="text;strokeColor=none;fillColor=none;align=left;verticalAlign=top;spacingLeft=4;spacingRight=4;overflow=hidden;rotatable=0;points=[[0,0.5],[1,0.5]];portConstraint=eastwest;whiteSpace=wrap;html=1;" vertex="1" parent="gRn7YBkFTihaeQdy9_q2-29">
          <mxGeometry y="118" width="160" height="26" as="geometry" />
        </mxCell>
        <mxCell id="gRn7YBkFTihaeQdy9_q2-92" style="edgeStyle=orthogonalEdgeStyle;rounded=0;orthogonalLoop=1;jettySize=auto;html=1;entryX=1;entryY=0.5;entryDx=0;entryDy=0;endArrow=none;endFill=0;" edge="1" parent="1" source="gRn7YBkFTihaeQdy9_q2-33" target="gRn7YBkFTihaeQdy9_q2-22">
          <mxGeometry relative="1" as="geometry" />
        </mxCell>
        <mxCell id="gRn7YBkFTihaeQdy9_q2-93" value="1" style="edgeLabel;html=1;align=center;verticalAlign=middle;resizable=0;points=[];" vertex="1" connectable="0" parent="gRn7YBkFTihaeQdy9_q2-92">
          <mxGeometry x="0.8395" y="-6" relative="1" as="geometry">
            <mxPoint x="-3" y="-10" as="offset" />
          </mxGeometry>
        </mxCell>
        <mxCell id="gRn7YBkFTihaeQdy9_q2-94" value="*" style="edgeLabel;html=1;align=center;verticalAlign=middle;resizable=0;points=[];" vertex="1" connectable="0" parent="gRn7YBkFTihaeQdy9_q2-92">
          <mxGeometry x="-0.7937" y="-1" relative="1" as="geometry">
            <mxPoint x="4" as="offset" />
          </mxGeometry>
        </mxCell>
        <mxCell id="gRn7YBkFTihaeQdy9_q2-33" value="Lider" style="swimlane;fontStyle=1;align=center;verticalAlign=top;childLayout=stackLayout;horizontal=1;startSize=26;horizontalStack=0;resizeParent=1;resizeParentMax=0;resizeLast=0;collapsible=1;marginBottom=0;whiteSpace=wrap;html=1;" vertex="1" parent="1">
          <mxGeometry x="295" y="380" width="160" height="134" as="geometry" />
        </mxCell>
        <mxCell id="gRn7YBkFTihaeQdy9_q2-34" value="- DNI: Cadena&lt;div&gt;- Nombre: Cadena&lt;/div&gt;&lt;div&gt;- Direccion: Cadena&lt;/div&gt;&lt;div&gt;- Telefono: Cadena&lt;/div&gt;" style="text;strokeColor=none;fillColor=none;align=left;verticalAlign=top;spacingLeft=4;spacingRight=4;overflow=hidden;rotatable=0;points=[[0,0.5],[1,0.5]];portConstraint=eastwest;whiteSpace=wrap;html=1;" vertex="1" parent="gRn7YBkFTihaeQdy9_q2-33">
          <mxGeometry y="26" width="160" height="74" as="geometry" />
        </mxCell>
        <mxCell id="gRn7YBkFTihaeQdy9_q2-35" value="" style="line;strokeWidth=1;fillColor=none;align=left;verticalAlign=middle;spacingTop=-1;spacingLeft=3;spacingRight=3;rotatable=0;labelPosition=right;points=[];portConstraint=eastwest;strokeColor=inherit;" vertex="1" parent="gRn7YBkFTihaeQdy9_q2-33">
          <mxGeometry y="100" width="160" height="8" as="geometry" />
        </mxCell>
        <mxCell id="gRn7YBkFTihaeQdy9_q2-36" value="+ Crear_Lider()" style="text;strokeColor=none;fillColor=none;align=left;verticalAlign=top;spacingLeft=4;spacingRight=4;overflow=hidden;rotatable=0;points=[[0,0.5],[1,0.5]];portConstraint=eastwest;whiteSpace=wrap;html=1;" vertex="1" parent="gRn7YBkFTihaeQdy9_q2-33">
          <mxGeometry y="108" width="160" height="26" as="geometry" />
        </mxCell>
        <mxCell id="gRn7YBkFTihaeQdy9_q2-37" value="Institucion" style="swimlane;fontStyle=1;align=center;verticalAlign=top;childLayout=stackLayout;horizontal=1;startSize=26;horizontalStack=0;resizeParent=1;resizeParentMax=0;resizeLast=0;collapsible=1;marginBottom=0;whiteSpace=wrap;html=1;" vertex="1" parent="1">
          <mxGeometry x="-50" y="200" width="160" height="104" as="geometry" />
        </mxCell>
        <mxCell id="gRn7YBkFTihaeQdy9_q2-38" value="- Nombre: Cadena&lt;div&gt;- Direccion: Cadena&lt;/div&gt;" style="text;strokeColor=none;fillColor=none;align=left;verticalAlign=top;spacingLeft=4;spacingRight=4;overflow=hidden;rotatable=0;points=[[0,0.5],[1,0.5]];portConstraint=eastwest;whiteSpace=wrap;html=1;" vertex="1" parent="gRn7YBkFTihaeQdy9_q2-37">
          <mxGeometry y="26" width="160" height="44" as="geometry" />
        </mxCell>
        <mxCell id="gRn7YBkFTihaeQdy9_q2-39" value="" style="line;strokeWidth=1;fillColor=none;align=left;verticalAlign=middle;spacingTop=-1;spacingLeft=3;spacingRight=3;rotatable=0;labelPosition=right;points=[];portConstraint=eastwest;strokeColor=inherit;" vertex="1" parent="gRn7YBkFTihaeQdy9_q2-37">
          <mxGeometry y="70" width="160" height="8" as="geometry" />
        </mxCell>
        <mxCell id="gRn7YBkFTihaeQdy9_q2-40" value="+ Crear_Institucion()" style="text;strokeColor=none;fillColor=none;align=left;verticalAlign=top;spacingLeft=4;spacingRight=4;overflow=hidden;rotatable=0;points=[[0,0.5],[1,0.5]];portConstraint=eastwest;whiteSpace=wrap;html=1;" vertex="1" parent="gRn7YBkFTihaeQdy9_q2-37">
          <mxGeometry y="78" width="160" height="26" as="geometry" />
        </mxCell>
        <mxCell id="gRn7YBkFTihaeQdy9_q2-85" style="edgeStyle=orthogonalEdgeStyle;rounded=0;orthogonalLoop=1;jettySize=auto;html=1;endArrow=none;endFill=0;dashed=1;" edge="1" parent="1" source="gRn7YBkFTihaeQdy9_q2-41">
          <mxGeometry relative="1" as="geometry">
            <mxPoint x="160" y="440" as="targetPoint" />
          </mxGeometry>
        </mxCell>
        <mxCell id="gRn7YBkFTihaeQdy9_q2-41" value="Certificacion" style="swimlane;fontStyle=1;align=center;verticalAlign=top;childLayout=stackLayout;horizontal=1;startSize=26;horizontalStack=0;resizeParent=1;resizeParentMax=0;resizeLast=0;collapsible=1;marginBottom=0;whiteSpace=wrap;html=1;" vertex="1" parent="1">
          <mxGeometry x="80" y="514" width="160" height="94" as="geometry" />
        </mxCell>
        <mxCell id="gRn7YBkFTihaeQdy9_q2-42" value="- Fecha: Cadena" style="text;strokeColor=none;fillColor=none;align=left;verticalAlign=top;spacingLeft=4;spacingRight=4;overflow=hidden;rotatable=0;points=[[0,0.5],[1,0.5]];portConstraint=eastwest;whiteSpace=wrap;html=1;" vertex="1" parent="gRn7YBkFTihaeQdy9_q2-41">
          <mxGeometry y="26" width="160" height="34" as="geometry" />
        </mxCell>
        <mxCell id="gRn7YBkFTihaeQdy9_q2-43" value="" style="line;strokeWidth=1;fillColor=none;align=left;verticalAlign=middle;spacingTop=-1;spacingLeft=3;spacingRight=3;rotatable=0;labelPosition=right;points=[];portConstraint=eastwest;strokeColor=inherit;" vertex="1" parent="gRn7YBkFTihaeQdy9_q2-41">
          <mxGeometry y="60" width="160" height="8" as="geometry" />
        </mxCell>
        <mxCell id="gRn7YBkFTihaeQdy9_q2-44" value="+ Crear_Certificaciom()" style="text;strokeColor=none;fillColor=none;align=left;verticalAlign=top;spacingLeft=4;spacingRight=4;overflow=hidden;rotatable=0;points=[[0,0.5],[1,0.5]];portConstraint=eastwest;whiteSpace=wrap;html=1;" vertex="1" parent="gRn7YBkFTihaeQdy9_q2-41">
          <mxGeometry y="68" width="160" height="26" as="geometry" />
        </mxCell>
        <mxCell id="gRn7YBkFTihaeQdy9_q2-45" style="edgeStyle=orthogonalEdgeStyle;rounded=0;orthogonalLoop=1;jettySize=auto;html=1;entryX=0.498;entryY=1.013;entryDx=0;entryDy=0;entryPerimeter=0;endArrow=diamond;endFill=1;" edge="1" parent="1" source="gRn7YBkFTihaeQdy9_q2-21" target="gRn7YBkFTihaeQdy9_q2-28">
          <mxGeometry relative="1" as="geometry" />
        </mxCell>
        <mxCell id="gRn7YBkFTihaeQdy9_q2-46" value="1" style="text;html=1;align=center;verticalAlign=middle;resizable=0;points=[];autosize=1;strokeColor=none;fillColor=none;" vertex="1" parent="1">
          <mxGeometry x="260" y="84" width="30" height="30" as="geometry" />
        </mxCell>
        <mxCell id="gRn7YBkFTihaeQdy9_q2-47" value="*" style="text;html=1;align=center;verticalAlign=middle;resizable=0;points=[];autosize=1;strokeColor=none;fillColor=none;" vertex="1" parent="1">
          <mxGeometry x="260" y="170" width="30" height="30" as="geometry" />
        </mxCell>
        <mxCell id="gRn7YBkFTihaeQdy9_q2-55" style="edgeStyle=orthogonalEdgeStyle;rounded=0;orthogonalLoop=1;jettySize=auto;html=1;entryX=0;entryY=0.5;entryDx=0;entryDy=0;endArrow=diamond;endFill=0;" edge="1" parent="1" target="gRn7YBkFTihaeQdy9_q2-4">
          <mxGeometry relative="1" as="geometry">
            <mxPoint x="455" y="470.0000000000001" as="sourcePoint" />
            <mxPoint x="750" y="273.004" as="targetPoint" />
            <Array as="points">
              <mxPoint x="590" y="470" />
              <mxPoint x="590" y="270" />
              <mxPoint x="700" y="270" />
            </Array>
          </mxGeometry>
        </mxCell>
        <mxCell id="gRn7YBkFTihaeQdy9_q2-56" value="1...*" style="text;html=1;align=center;verticalAlign=middle;resizable=0;points=[];autosize=1;strokeColor=none;fillColor=none;" vertex="1" parent="1">
          <mxGeometry x="460" y="432" width="40" height="30" as="geometry" />
        </mxCell>
        <mxCell id="gRn7YBkFTihaeQdy9_q2-57" value="1" style="text;html=1;align=center;verticalAlign=middle;resizable=0;points=[];autosize=1;strokeColor=none;fillColor=none;" vertex="1" parent="1">
          <mxGeometry x="665" y="237" width="30" height="30" as="geometry" />
        </mxCell>
        <mxCell id="gRn7YBkFTihaeQdy9_q2-61" style="edgeStyle=orthogonalEdgeStyle;rounded=0;orthogonalLoop=1;jettySize=auto;html=1;entryX=1;entryY=0.5;entryDx=0;entryDy=0;endArrow=diamond;endFill=0;" edge="1" parent="1" source="gRn7YBkFTihaeQdy9_q2-10" target="gRn7YBkFTihaeQdy9_q2-14">
          <mxGeometry relative="1" as="geometry" />
        </mxCell>
        <mxCell id="gRn7YBkFTihaeQdy9_q2-62" value="1" style="text;html=1;align=center;verticalAlign=middle;resizable=0;points=[];autosize=1;strokeColor=none;fillColor=none;" vertex="1" parent="1">
          <mxGeometry x="965" y="368" width="30" height="30" as="geometry" />
        </mxCell>
        <mxCell id="gRn7YBkFTihaeQdy9_q2-63" value="*" style="text;html=1;align=center;verticalAlign=middle;resizable=0;points=[];autosize=1;strokeColor=none;fillColor=none;" vertex="1" parent="1">
          <mxGeometry x="1065" y="368" width="30" height="30" as="geometry" />
        </mxCell>
        <mxCell id="gRn7YBkFTihaeQdy9_q2-69" value="1" style="text;html=1;align=center;verticalAlign=middle;resizable=0;points=[];autosize=1;strokeColor=none;fillColor=none;" vertex="1" parent="1">
          <mxGeometry x="1090" y="50" width="30" height="30" as="geometry" />
        </mxCell>
        <mxCell id="gRn7YBkFTihaeQdy9_q2-70" value="1...*" style="text;html=1;align=center;verticalAlign=middle;resizable=0;points=[];autosize=1;strokeColor=none;fillColor=none;" vertex="1" parent="1">
          <mxGeometry x="1010" y="50" width="40" height="30" as="geometry" />
        </mxCell>
        <mxCell id="gRn7YBkFTihaeQdy9_q2-71" value="1...*" style="text;html=1;align=center;verticalAlign=middle;resizable=0;points=[];autosize=1;strokeColor=none;fillColor=none;" vertex="1" parent="1">
          <mxGeometry x="810" y="50" width="40" height="30" as="geometry" />
        </mxCell>
        <mxCell id="gRn7YBkFTihaeQdy9_q2-72" value="1" style="text;html=1;align=center;verticalAlign=middle;resizable=0;points=[];autosize=1;strokeColor=none;fillColor=none;" vertex="1" parent="1">
          <mxGeometry x="750" y="148" width="30" height="30" as="geometry" />
        </mxCell>
        <mxCell id="gRn7YBkFTihaeQdy9_q2-78" value="1" style="text;html=1;align=center;verticalAlign=middle;resizable=0;points=[];autosize=1;strokeColor=none;fillColor=none;" vertex="1" parent="1">
          <mxGeometry x="340" y="180" width="30" height="30" as="geometry" />
        </mxCell>
        <mxCell id="gRn7YBkFTihaeQdy9_q2-79" value="*" style="text;html=1;align=center;verticalAlign=middle;resizable=0;points=[];autosize=1;strokeColor=none;fillColor=none;" vertex="1" parent="1">
          <mxGeometry x="665" y="180" width="30" height="30" as="geometry" />
        </mxCell>
        <mxCell id="gRn7YBkFTihaeQdy9_q2-84" style="edgeStyle=orthogonalEdgeStyle;rounded=0;orthogonalLoop=1;jettySize=auto;html=1;entryX=0.442;entryY=1.026;entryDx=0;entryDy=0;entryPerimeter=0;endArrow=none;endFill=0;" edge="1" parent="1" source="gRn7YBkFTihaeQdy9_q2-34" target="gRn7YBkFTihaeQdy9_q2-40">
          <mxGeometry relative="1" as="geometry">
            <Array as="points">
              <mxPoint x="21" y="440" />
            </Array>
          </mxGeometry>
        </mxCell>
        <mxCell id="gRn7YBkFTihaeQdy9_q2-86" value="*" style="text;html=1;align=center;verticalAlign=middle;resizable=0;points=[];autosize=1;strokeColor=none;fillColor=none;" vertex="1" parent="1">
          <mxGeometry x="265" y="418" width="30" height="30" as="geometry" />
        </mxCell>
        <mxCell id="gRn7YBkFTihaeQdy9_q2-87" value="1" style="text;html=1;align=center;verticalAlign=middle;resizable=0;points=[];autosize=1;strokeColor=none;fillColor=none;" vertex="1" parent="1">
          <mxGeometry x="25" y="304" width="30" height="30" as="geometry" />
        </mxCell>
        <mxCell id="gRn7YBkFTihaeQdy9_q2-88" style="edgeStyle=orthogonalEdgeStyle;rounded=0;orthogonalLoop=1;jettySize=auto;html=1;endArrow=none;endFill=0;entryX=-0.002;entryY=0.114;entryDx=0;entryDy=0;entryPerimeter=0;startArrow=diamond;startFill=1;" edge="1" parent="1" target="gRn7YBkFTihaeQdy9_q2-2">
          <mxGeometry relative="1" as="geometry">
            <mxPoint x="340" y="211" as="sourcePoint" />
            <mxPoint x="670" y="210" as="targetPoint" />
            <Array as="points">
              <mxPoint x="342" y="211" />
              <mxPoint x="700" y="210" />
            </Array>
          </mxGeometry>
        </mxCell>
        <mxCell id="gRn7YBkFTihaeQdy9_q2-89" value="Planifica&amp;gt;" style="text;html=1;align=center;verticalAlign=middle;resizable=0;points=[];autosize=1;strokeColor=none;fillColor=none;" vertex="1" parent="1">
          <mxGeometry x="470" y="178" width="80" height="30" as="geometry" />
        </mxCell>
        <mxCell id="gRn7YBkFTihaeQdy9_q2-90" value="Coordina&amp;gt;" style="text;html=1;align=center;verticalAlign=middle;resizable=0;points=[];autosize=1;strokeColor=none;fillColor=none;" vertex="1" parent="1">
          <mxGeometry x="500" y="432" width="80" height="30" as="geometry" />
        </mxCell>
        <mxCell id="gRn7YBkFTihaeQdy9_q2-91" value="Certifica&amp;gt;" style="text;html=1;align=center;verticalAlign=middle;resizable=0;points=[];autosize=1;strokeColor=none;fillColor=none;" vertex="1" parent="1">
          <mxGeometry x="125" y="408" width="70" height="30" as="geometry" />
        </mxCell>
      </root>
    </mxGraphModel>
  </diagram>
</mxfile>
